<?xml version="1.0" encoding="iso-8859-1"?>
<!-- Generator: Adobe Illustrator 18.0.0, SVG Export Plug-In . SVG Version: 6.00 Build 0)  -->
<!DOCTYPE svg PUBLIC "-//W3C//DTD SVG 1.1//EN" "http://www.w3.org/Graphics/SVG/1.1/DTD/svg11.dtd">
<svg version="1.1" id="Capa_1" xmlns="http://www.w3.org/2000/svg" xmlns:xlink="http://www.w3.org/1999/xlink" x="0px" y="0px"
	 viewBox="0 0 493.054 493.054" style="enable-background:new 0 0 493.054 493.054;" xml:space="preserve">
<g id="snifter">
	<path style="fill:#F3EFFE;" d="M402.528,244.436c0-74.863-16.068-167.859-42.253-244.436H132.611
		c-26.09,76.355-42.085,169.124-42.085,244.436c0,81.8,73.211,119.557,119.28,135.226c12.03,4.092,20.137,15.398,20.137,28.105
		v0.033c0,12.59-8.952,23.337-21.327,25.653c-41.383,7.744-70.891,26.277-70.891,36.285c0,12.888,48.709,23.315,108.8,23.315
		c60.086,0,108.795-10.427,108.795-23.315c0-9.883-28.779-28.081-69.353-35.991c-13.262-2.585-22.865-14.2-22.865-27.712v-0.006
		c0-11.774,7.511-22.221,18.668-25.984C327.734,364.542,402.528,326.702,402.528,244.436z"/>
</g>
<g>
</g>
<g>
</g>
<g>
</g>
<g>
</g>
<g>
</g>
<g>
</g>
<g>
</g>
<g>
</g>
<g>
</g>
<g>
</g>
<g>
</g>
<g>
</g>
<g>
</g>
<g>
</g>
<g>
</g>
</svg>
